<mxfile host="app.diagrams.net" agent="Mozilla/5.0 (Windows NT 10.0; Win64; x64) AppleWebKit/537.36 (KHTML, like Gecko) Chrome/130.0.0.0 Safari/537.36 Edg/130.0.0.0" version="27.2.0">
  <diagram name="Frontend-Center-Out-Architecture" id="g8c2f5d1-3c99-6e2f-d40a-7b41h1g5f089">
    <mxGraphModel dx="1315" dy="991" grid="1" gridSize="10" guides="1" tooltips="1" connect="1" arrows="1" fold="1" page="1" pageScale="1" pageWidth="1654" pageHeight="1169" math="0" shadow="0">
      <root>
        <mxCell id="0" />
        <mxCell id="1" parent="0" />
        <mxCell id="title" value="前端应用架构图 (Vue 3 + Vite)" style="text;html=1;strokeColor=none;fillColor=none;align=center;verticalAlign=middle;whiteSpace=wrap;rounded=0;fontSize=20;fontStyle=1;" parent="1" vertex="1">
          <mxGeometry x="400" y="20" width="440" height="40" as="geometry" />
        </mxCell>
        <mxCell id="c-entry" value="&lt;b style=&quot;font-size: 14px;&quot;&gt;应用入口 &amp;amp; 构建&lt;/b&gt;&lt;br&gt;&lt;div style=&quot;text-align: left; margin-left: 10px;&quot;&gt;&lt;br&gt;main.js (初始化)&lt;br&gt;App.vue (根组件)&lt;br&gt;vite.config.js&lt;br&gt;package.json&lt;/div&gt;" style="rounded=1;whiteSpace=wrap;html=1;fillColor=#bac8d3;strokeColor=#23445d;shadow=1;align=center;verticalAlign=top;" parent="1" vertex="1">
          <mxGeometry x="470" y="80" width="300" height="120" as="geometry" />
        </mxCell>
        <mxCell id="c-router" value="&lt;b style=&quot;font-size: 14px;&quot;&gt;路由系统 (Vue Router)&lt;/b&gt;&lt;br&gt;&lt;div style=&quot;text-align: left; margin-left: 10px;&quot;&gt;&lt;br&gt;路由定义&lt;br&gt;导航守卫&lt;/div&gt;" style="rounded=1;whiteSpace=wrap;html=1;fillColor=#dae8fc;strokeColor=#6c8ebf;shadow=1;align=center;verticalAlign=top;" parent="1" vertex="1">
          <mxGeometry x="100" y="325" width="220" height="100" as="geometry" />
        </mxCell>
        <mxCell id="c-views" value="&lt;b style=&quot;font-size: 14px;&quot;&gt;视图/页面层 (Views)&lt;/b&gt;&lt;br&gt;&lt;div style=&quot;text-align: left; margin-left: 10px;&quot;&gt;&lt;br&gt;Login, Register&lt;br&gt;Timetable, Terms&lt;br&gt;Manage&lt;/div&gt;" style="rounded=1;whiteSpace=wrap;html=1;fillColor=#dae8fc;strokeColor=#6c8ebf;shadow=1;align=center;verticalAlign=top;" parent="1" vertex="1">
          <mxGeometry x="380" y="310" width="220" height="130" as="geometry" />
        </mxCell>
        <mxCell id="c-stores" value="&lt;b style=&quot;font-size: 14px;&quot;&gt;状态管理 (Pinia Stores)&lt;/b&gt;&lt;br&gt;&lt;div style=&quot;text-align: left; margin-left: 10px;&quot;&gt;&lt;br&gt;user.js (用户信息)&lt;br&gt;term.js (学期数据)&lt;br&gt;theme.js (主题)&lt;/div&gt;" style="rounded=1;whiteSpace=wrap;html=1;fillColor=#d5e8d4;strokeColor=#82b366;shadow=1;align=center;verticalAlign=top;" parent="1" vertex="1">
          <mxGeometry x="660" y="310" width="220" height="130" as="geometry" />
        </mxCell>
        <mxCell id="c-api" value="&lt;b style=&quot;font-size: 14px;&quot;&gt;API 请求层 (Axios)&lt;/b&gt;&lt;br&gt;&lt;div style=&quot;text-align: left; margin-left: 10px;&quot;&gt;&lt;br&gt;request.js (拦截器)&lt;br&gt;auth.js, course.js...&lt;/div&gt;" style="rounded=1;whiteSpace=wrap;html=1;fillColor=#ffe6cc;strokeColor=#d79b00;shadow=1;align=center;verticalAlign=top;" parent="1" vertex="1">
          <mxGeometry x="940" y="310" width="220" height="110" as="geometry" />
        </mxCell>
        <mxCell id="c-backend" value="&lt;b&gt;后端服务&lt;/b&gt;" style="shape=cloud;whiteSpace=wrap;html=1;fillColor=#f8cecc;strokeColor=#b85450;shadow=1;" parent="1" vertex="1">
          <mxGeometry x="1220" y="325" width="120" height="80" as="geometry" />
        </mxCell>
        <mxCell id="c-components" value="&lt;b style=&quot;font-size: 14px;&quot;&gt;可复用组件 (Components)&lt;/b&gt;&lt;br&gt;&lt;div style=&quot;text-align: left; margin-left: 10px;&quot;&gt;&lt;br&gt;CourseFormDialog&lt;br&gt;ExcelImportDialog&lt;br&gt;DailyGridView&lt;br&gt;Icons...&lt;/div&gt;" style="rounded=1;whiteSpace=wrap;html=1;fillColor=#f5f5f5;strokeColor=#666666;shadow=1;align=center;verticalAlign=top;" parent="1" vertex="1">
          <mxGeometry x="240" y="540" width="220" height="140" as="geometry" />
        </mxCell>
        <mxCell id="c-layout" value="&lt;b style=&quot;font-size: 14px;&quot;&gt;布局 (Layout)&lt;/b&gt;" style="rounded=1;whiteSpace=wrap;html=1;fillColor=#f5f5f5;strokeColor=#666666;shadow=1;align=center;verticalAlign=middle;" parent="1" vertex="1">
          <mxGeometry x="500" y="540" width="120" height="60" as="geometry" />
        </mxCell>
        <mxCell id="c-utils" value="&lt;b style=&quot;font-size: 14px;&quot;&gt;工具函数 (Utils)&lt;/b&gt;&lt;br&gt;&lt;div style=&quot;text-align: left; margin-left: 10px;&quot;&gt;&lt;br&gt;日期格式化&lt;br&gt;Token 操作&lt;/div&gt;" style="rounded=1;whiteSpace=wrap;html=1;fillColor=#e1d5e7;strokeColor=#9673a6;shadow=1;align=center;verticalAlign=top;" parent="1" vertex="1">
          <mxGeometry x="660" y="540" width="220" height="90" as="geometry" />
        </mxCell>
        <mxCell id="c-assets" value="&lt;b style=&quot;font-size: 14px;&quot;&gt;静态资源 (Assets)&lt;/b&gt;&lt;br&gt;&lt;div style=&quot;text-align: left; margin-left: 10px;&quot;&gt;&lt;br&gt;全局 CSS&lt;br&gt;图片, Logo&lt;/div&gt;" style="rounded=1;whiteSpace=wrap;html=1;fillColor=#e1d5e7;strokeColor=#9673a6;shadow=1;align=center;verticalAlign=top;" parent="1" vertex="1">
          <mxGeometry x="920" y="540" width="220" height="90" as="geometry" />
        </mxCell>
        <mxCell id="arrow-init" style="edgeStyle=orthogonalEdgeStyle;rounded=0;orthogonalLoop=1;jettySize=auto;html=1;endArrow=classic;endFill=1;strokeWidth=2;" parent="1" source="c-entry" target="c-router" edge="1">
          <mxGeometry relative="1" as="geometry">
            <Array as="points">
              <mxPoint x="620" y="240" />
              <mxPoint x="210" y="240" />
            </Array>
          </mxGeometry>
        </mxCell>
        <mxCell id="arrow-init2" value="初始化" style="edgeStyle=orthogonalEdgeStyle;rounded=0;orthogonalLoop=1;jettySize=auto;html=1;endArrow=classic;endFill=1;strokeWidth=2;" parent="1" source="c-entry" target="c-stores" edge="1">
          <mxGeometry relative="1" as="geometry">
            <Array as="points">
              <mxPoint x="620" y="240" />
              <mxPoint x="770" y="240" />
            </Array>
          </mxGeometry>
        </mxCell>
        <mxCell id="arrow-route-view" value="渲染" style="edgeStyle=orthogonalEdgeStyle;rounded=0;orthogonalLoop=1;jettySize=auto;html=1;endArrow=classic;endFill=1;strokeWidth=2;" parent="1" source="c-router" target="c-views" edge="1">
          <mxGeometry relative="1" as="geometry" />
        </mxCell>
        <mxCell id="arrow-view-store" value="读/写数据" style="edgeStyle=orthogonalEdgeStyle;rounded=0;orthogonalLoop=1;jettySize=auto;html=1;endArrow=classic;endFill=1;strokeWidth=2;entryX=0;entryY=0.5;entryDx=0;entryDy=0;exitX=1;exitY=0.5;exitDx=0;exitDy=0;" parent="1" source="c-views" target="c-stores" edge="1">
          <mxGeometry relative="1" as="geometry" />
        </mxCell>
        <mxCell id="arrow-store-api" value="请求数据" style="edgeStyle=orthogonalEdgeStyle;rounded=0;orthogonalLoop=1;jettySize=auto;html=1;endArrow=classic;endFill=1;strokeWidth=2;" parent="1" source="c-stores" target="c-api" edge="1">
          <mxGeometry relative="1" as="geometry" />
        </mxCell>
        <mxCell id="arrow-api-backend" value="HTTP" style="edgeStyle=orthogonalEdgeStyle;rounded=0;orthogonalLoop=1;jettySize=auto;html=1;endArrow=classic;endFill=1;strokeWidth=2;" parent="1" source="c-api" target="c-backend" edge="1">
          <mxGeometry relative="1" as="geometry" />
        </mxCell>
        <mxCell id="arrow-view-component" value="组合" style="edgeStyle=orthogonalEdgeStyle;rounded=0;orthogonalLoop=1;jettySize=auto;html=1;endArrow=classic;endFill=1;strokeColor=#666666;dashed=1;" parent="1" source="c-views" target="c-components" edge="1">
          <mxGeometry relative="1" as="geometry">
            <mxPoint x="490" y="440" as="sourcePoint" />
          </mxGeometry>
        </mxCell>
        <mxCell id="arrow-view-layout" value="嵌入" style="edgeStyle=orthogonalEdgeStyle;rounded=0;orthogonalLoop=1;jettySize=auto;html=1;endArrow=classic;endFill=1;strokeColor=#666666;dashed=1;" parent="1" source="c-views" target="c-layout" edge="1">
          <mxGeometry relative="1" as="geometry">
            <mxPoint x="490" y="440" as="sourcePoint" />
          </mxGeometry>
        </mxCell>
        <mxCell id="arrow-all-utils" value="使用" style="edgeStyle=orthogonalEdgeStyle;rounded=0;orthogonalLoop=1;jettySize=auto;html=1;endArrow=classic;endFill=1;strokeColor=#666666;dashed=1;" parent="1" source="c-stores" target="c-utils" edge="1">
          <mxGeometry relative="1" as="geometry">
            <mxPoint x="770" y="440" as="sourcePoint" />
          </mxGeometry>
        </mxCell>
        <mxCell id="arrow-all-assets" value="使用" style="edgeStyle=orthogonalEdgeStyle;rounded=0;orthogonalLoop=1;jettySize=auto;html=1;endArrow=classic;endFill=1;strokeColor=#666666;dashed=1;" parent="1" source="c-components" target="c-assets" edge="1">
          <mxGeometry relative="1" as="geometry">
            <Array as="points">
              <mxPoint x="350" y="710" />
              <mxPoint x="1030" y="710" />
            </Array>
          </mxGeometry>
        </mxCell>
      </root>
    </mxGraphModel>
  </diagram>
</mxfile>
